<mxfile host="app.diagrams.net" agent="Mozilla/5.0 (Windows NT 10.0; Win64; x64) AppleWebKit/537.36 (KHTML, like Gecko) Chrome/139.0.0.0 Safari/537.36" version="28.1.1">
  <diagram name="Page-1" id="NHyKxXVfvJ1waNrxLuhE">
    <mxGraphModel dx="1858" dy="1140" grid="1" gridSize="10" guides="1" tooltips="1" connect="1" arrows="1" fold="1" page="1" pageScale="1" pageWidth="827" pageHeight="1169" math="0" shadow="0">
      <root>
        <mxCell id="0" />
        <mxCell id="1" parent="0" />
        <mxCell id="ISsUFam-CQ4qAcfD4QnQ-3" value="" style="edgeStyle=orthogonalEdgeStyle;rounded=0;orthogonalLoop=1;jettySize=auto;html=1;" edge="1" parent="1" source="ISsUFam-CQ4qAcfD4QnQ-1" target="ISsUFam-CQ4qAcfD4QnQ-2">
          <mxGeometry relative="1" as="geometry" />
        </mxCell>
        <mxCell id="ISsUFam-CQ4qAcfD4QnQ-1" value="&lt;font style=&quot;font-size: 26px; color: light-dark(rgb(0, 0, 0), rgb(0, 0, 0));&quot;&gt;START&lt;/font&gt;" style="ellipse;whiteSpace=wrap;html=1;fillColor=#1ba1e2;fontColor=#ffffff;strokeColor=#006EAF;" vertex="1" parent="1">
          <mxGeometry x="260" y="20" width="300" height="80" as="geometry" />
        </mxCell>
        <mxCell id="ISsUFam-CQ4qAcfD4QnQ-5" value="" style="edgeStyle=orthogonalEdgeStyle;rounded=0;orthogonalLoop=1;jettySize=auto;html=1;" edge="1" parent="1" source="ISsUFam-CQ4qAcfD4QnQ-2" target="ISsUFam-CQ4qAcfD4QnQ-4">
          <mxGeometry relative="1" as="geometry" />
        </mxCell>
        <mxCell id="ISsUFam-CQ4qAcfD4QnQ-15" value="" style="edgeStyle=orthogonalEdgeStyle;rounded=0;orthogonalLoop=1;jettySize=auto;html=1;" edge="1" parent="1" source="ISsUFam-CQ4qAcfD4QnQ-2" target="ISsUFam-CQ4qAcfD4QnQ-14">
          <mxGeometry relative="1" as="geometry" />
        </mxCell>
        <mxCell id="ISsUFam-CQ4qAcfD4QnQ-2" value="&lt;font style=&quot;font-size: 20px; color: light-dark(rgb(0, 0, 0), rgb(0, 0, 0));&quot;&gt;NEW USER?&lt;/font&gt;" style="rhombus;whiteSpace=wrap;html=1;fillColor=#d80073;strokeColor=#A50040;fontColor=#ffffff;" vertex="1" parent="1">
          <mxGeometry x="250" y="180" width="320" height="130" as="geometry" />
        </mxCell>
        <mxCell id="ISsUFam-CQ4qAcfD4QnQ-7" value="" style="edgeStyle=orthogonalEdgeStyle;rounded=0;orthogonalLoop=1;jettySize=auto;html=1;" edge="1" parent="1" source="ISsUFam-CQ4qAcfD4QnQ-4" target="ISsUFam-CQ4qAcfD4QnQ-6">
          <mxGeometry relative="1" as="geometry" />
        </mxCell>
        <mxCell id="ISsUFam-CQ4qAcfD4QnQ-4" value="&lt;font style=&quot;font-size: 21px; color: light-dark(rgb(0, 0, 0), rgb(255, 255, 255));&quot;&gt;RECOGNIZE THE FACE&lt;/font&gt;" style="shape=parallelogram;perimeter=parallelogramPerimeter;whiteSpace=wrap;html=1;fixedSize=1;fillColor=#008a00;strokeColor=#005700;fontColor=#ffffff;" vertex="1" parent="1">
          <mxGeometry x="240" y="425" width="340" height="85" as="geometry" />
        </mxCell>
        <mxCell id="ISsUFam-CQ4qAcfD4QnQ-9" value="" style="edgeStyle=orthogonalEdgeStyle;rounded=0;orthogonalLoop=1;jettySize=auto;html=1;" edge="1" parent="1" source="ISsUFam-CQ4qAcfD4QnQ-6">
          <mxGeometry relative="1" as="geometry">
            <mxPoint x="410.0000000000002" y="799.9999999999998" as="targetPoint" />
          </mxGeometry>
        </mxCell>
        <mxCell id="ISsUFam-CQ4qAcfD4QnQ-6" value="&lt;font style=&quot;color: light-dark(rgb(0, 0, 0), rgb(0, 0, 0)); font-size: 21px;&quot;&gt;FACE RECGNIZED&lt;/font&gt;" style="rhombus;whiteSpace=wrap;html=1;fillColor=#0050ef;strokeColor=#001DBC;fontColor=#ffffff;" vertex="1" parent="1">
          <mxGeometry x="250" y="592.5" width="320" height="127.5" as="geometry" />
        </mxCell>
        <mxCell id="ISsUFam-CQ4qAcfD4QnQ-12" value="" style="edgeStyle=orthogonalEdgeStyle;rounded=0;orthogonalLoop=1;jettySize=auto;html=1;" edge="1" parent="1" source="ISsUFam-CQ4qAcfD4QnQ-10" target="ISsUFam-CQ4qAcfD4QnQ-11">
          <mxGeometry relative="1" as="geometry" />
        </mxCell>
        <mxCell id="ISsUFam-CQ4qAcfD4QnQ-10" value="&lt;font style=&quot;font-size: 20px; color: light-dark(rgb(0, 0, 0), rgb(0, 0, 0));&quot;&gt;Stored in CSV file with registration&lt;/font&gt;&lt;div&gt;&lt;font style=&quot;font-size: 20px; color: light-dark(rgb(0, 0, 0), rgb(0, 0, 0));&quot;&gt;number &amp;amp; date time of entry&lt;/font&gt;&lt;/div&gt;" style="shape=parallelogram;perimeter=parallelogramPerimeter;whiteSpace=wrap;html=1;fixedSize=1;fillColor=#e51400;fontColor=#ffffff;strokeColor=#B20000;" vertex="1" parent="1">
          <mxGeometry x="244" y="800" width="340" height="100" as="geometry" />
        </mxCell>
        <mxCell id="ISsUFam-CQ4qAcfD4QnQ-11" value="&lt;font style=&quot;font-size: 24px; color: light-dark(rgb(0, 0, 0), rgb(0, 0, 0));&quot;&gt;END&lt;/font&gt;" style="ellipse;whiteSpace=wrap;html=1;fillColor=#76608a;fontColor=#ffffff;strokeColor=#432D57;" vertex="1" parent="1">
          <mxGeometry x="260" y="1020" width="310" height="100" as="geometry" />
        </mxCell>
        <mxCell id="ISsUFam-CQ4qAcfD4QnQ-18" value="" style="edgeStyle=orthogonalEdgeStyle;rounded=0;orthogonalLoop=1;jettySize=auto;html=1;" edge="1" parent="1" source="ISsUFam-CQ4qAcfD4QnQ-14" target="ISsUFam-CQ4qAcfD4QnQ-17">
          <mxGeometry relative="1" as="geometry" />
        </mxCell>
        <mxCell id="ISsUFam-CQ4qAcfD4QnQ-14" value="&lt;font style=&quot;font-size: 22px; color: light-dark(rgb(0, 0, 0), rgb(255, 255, 255));&quot;&gt;Give your photograph&lt;/font&gt;" style="whiteSpace=wrap;html=1;fillColor=#647687;strokeColor=#314354;fontColor=#ffffff;" vertex="1" parent="1">
          <mxGeometry x="710" y="200" width="310" height="90" as="geometry" />
        </mxCell>
        <mxCell id="ISsUFam-CQ4qAcfD4QnQ-17" value="&lt;font style=&quot;font-size: 21px; color: light-dark(rgb(0, 0, 0), rgb(0, 0, 0));&quot;&gt;Save the face data in folder&lt;/font&gt;&lt;div&gt;&lt;font style=&quot;font-size: 21px; color: light-dark(rgb(0, 0, 0), rgb(0, 0, 0));&quot;&gt;on your name&lt;/font&gt;&lt;/div&gt;" style="whiteSpace=wrap;html=1;fillColor=#fa6800;strokeColor=#C73500;fontColor=#000000;" vertex="1" parent="1">
          <mxGeometry x="710" y="422.5" width="310" height="90" as="geometry" />
        </mxCell>
        <mxCell id="ISsUFam-CQ4qAcfD4QnQ-19" value="" style="endArrow=classic;html=1;rounded=0;exitX=0;exitY=0.5;exitDx=0;exitDy=0;entryX=1;entryY=0.5;entryDx=0;entryDy=0;" edge="1" parent="1" source="ISsUFam-CQ4qAcfD4QnQ-17" target="ISsUFam-CQ4qAcfD4QnQ-4">
          <mxGeometry width="50" height="50" relative="1" as="geometry">
            <mxPoint x="610" y="350" as="sourcePoint" />
            <mxPoint x="660" y="300" as="targetPoint" />
          </mxGeometry>
        </mxCell>
        <mxCell id="ISsUFam-CQ4qAcfD4QnQ-21" value="" style="endArrow=classic;html=1;rounded=0;entryX=0.5;entryY=0;entryDx=0;entryDy=0;" edge="1" parent="1" target="ISsUFam-CQ4qAcfD4QnQ-14">
          <mxGeometry width="50" height="50" relative="1" as="geometry">
            <mxPoint x="1130" y="660" as="sourcePoint" />
            <mxPoint x="830" y="60" as="targetPoint" />
            <Array as="points">
              <mxPoint x="1130" y="70" />
              <mxPoint x="1060" y="70" />
              <mxPoint x="865" y="70" />
            </Array>
          </mxGeometry>
        </mxCell>
        <mxCell id="ISsUFam-CQ4qAcfD4QnQ-22" value="&lt;font style=&quot;font-size: 28px;&quot;&gt;yes&lt;/font&gt;" style="text;html=1;align=center;verticalAlign=middle;resizable=0;points=[];autosize=1;strokeColor=none;fillColor=none;" vertex="1" parent="1">
          <mxGeometry x="605" y="208" width="70" height="50" as="geometry" />
        </mxCell>
        <mxCell id="ISsUFam-CQ4qAcfD4QnQ-23" value="&lt;font style=&quot;font-size: 27px;&quot;&gt;No&lt;/font&gt;" style="text;html=1;align=center;verticalAlign=middle;resizable=0;points=[];autosize=1;strokeColor=none;fillColor=none;" vertex="1" parent="1">
          <mxGeometry x="790" y="618" width="60" height="50" as="geometry" />
        </mxCell>
        <mxCell id="ISsUFam-CQ4qAcfD4QnQ-24" value="&lt;font style=&quot;font-size: 24px;&quot;&gt;Yes&lt;/font&gt;" style="text;html=1;align=center;verticalAlign=middle;resizable=0;points=[];autosize=1;strokeColor=none;fillColor=none;" vertex="1" parent="1">
          <mxGeometry x="310" y="743" width="60" height="40" as="geometry" />
        </mxCell>
        <mxCell id="ISsUFam-CQ4qAcfD4QnQ-25" value="&lt;font style=&quot;font-size: 23px;&quot;&gt;No&lt;/font&gt;" style="text;html=1;align=center;verticalAlign=middle;resizable=0;points=[];autosize=1;strokeColor=none;fillColor=none;" vertex="1" parent="1">
          <mxGeometry x="345" y="333" width="50" height="40" as="geometry" />
        </mxCell>
        <mxCell id="ISsUFam-CQ4qAcfD4QnQ-26" value="" style="endArrow=none;html=1;rounded=0;exitX=1;exitY=0.5;exitDx=0;exitDy=0;" edge="1" parent="1" source="ISsUFam-CQ4qAcfD4QnQ-6">
          <mxGeometry width="50" height="50" relative="1" as="geometry">
            <mxPoint x="530" y="320" as="sourcePoint" />
            <mxPoint x="1130" y="660" as="targetPoint" />
          </mxGeometry>
        </mxCell>
      </root>
    </mxGraphModel>
  </diagram>
</mxfile>
